<svg width="59" height="35" viewBox="0 0 59 35" fill="none" xmlns="http://www.w3.org/2000/svg">
<path d="M8.1001 31.9H10.4501L28.6501 0H35.2001L37.7501 31.9H40.1001L39.3501 34.9H26.0501L26.7501 31.9H30.2501L29.8501 24H19.0001L14.7001 31.9H18.2001L17.4501 34.9H7.3501L8.1001 31.9ZM20.6001 20.9H29.7501L29.2001 5.45H28.7501L20.6001 20.9Z" fill="#8198DB"/>
<path d="M42.5232 8.90002H48.1062L39.583 34.9H34L42.5232 8.90002Z" fill="#1B1D23"/>
<path d="M58.2732 23.9215L46.7768 18.5309V15.9013L59 21.4892V23.5928L58.2732 23.9215ZM53.417 23.4285L56.3241 24.809L46.7768 29.1807V26.5511L53.417 23.4285Z" fill="#1B1D23"/>
<path d="M0.66 24.22L0 23.92V22L11.1 16.9V19.3L0.66 24.22ZM5.07 23.77L11.1 26.62V29.02L2.43 25.03L5.07 23.77Z" fill="#1B1D23"/>
</svg>
