<svg width="174" height="33" viewBox="0 0 174 33" fill="none" xmlns="http://www.w3.org/2000/svg">
<path d="M3.51562 16.807L12.9688 21.7875L12.1875 26.2797L0 19.014L0.546875 16.0648L3.51562 16.807ZM14.5117 12.9203L3.78906 17.764L0.0976562 18.5453L0.683594 15.2054L15.3711 7.97888L14.5117 12.9203ZM158.83 1.16248L143.811 32.0414H140.823L155.881 1.16248H158.83ZM171.096 17.2562L160.803 11.7484L161.428 8.21326L173.83 15.5961L173.44 17.7445L171.096 17.2562ZM159.045 21.9242L170.881 16.4945L173.752 16.0453L173.323 18.4476L158.342 25.8695L159.045 21.9242Z" fill="#E0DFFB"/>
<path d="M33.21 29.6L32.41 22.16H23.33L20.05 29.6H15.41L28.25 1.67998H34.25L37.77 29.6H33.21ZM30.73 6.07998H30.37L24.93 18.44H32.05L30.73 6.07998ZM44.3144 29.6H39.9544L44.5944 1.67998H54.6344C57.0344 1.67998 58.821 2.31997 59.9944 3.59997C61.1944 4.87997 61.7944 6.54664 61.7944 8.59997C61.7944 11.2666 61.1144 13.4133 59.7544 15.04C58.421 16.64 56.541 17.6133 54.1144 17.96L58.6744 29.6H53.9944L49.9144 18.28H46.1944L44.3144 29.6ZM52.1144 14.72C54.9144 14.72 56.5144 13.52 56.9144 11.12L57.1544 9.67997C57.181 9.54664 57.2077 9.34664 57.2344 9.07998C57.261 8.81331 57.2744 8.55998 57.2744 8.31998C57.2744 6.34664 56.0877 5.35998 53.7144 5.35998H48.3944L46.8344 14.72H52.1144ZM75.1388 5.39997L71.0988 29.6H66.6988L70.7388 5.39997H61.9388L62.5788 1.67998H84.5788L83.9388 5.39997H75.1388ZM87.8831 30.08C85.2698 30.08 83.2565 29.36 81.8431 27.92C80.4298 26.4533 79.7231 24.2266 79.7231 21.24C79.7231 19.3733 80.0031 17.6666 80.5631 16.12C81.1231 14.5466 81.8965 13.2 82.8831 12.08C83.8965 10.9333 85.0965 10.0533 86.4831 9.43998C87.8965 8.79998 89.4298 8.47998 91.0831 8.47998C92.0965 8.47998 93.0298 8.59997 93.8831 8.83997C94.7365 9.07997 95.4698 9.43997 96.0831 9.91998C96.7231 10.3733 97.2165 10.9466 97.5631 11.64C97.9098 12.3333 98.0831 13.1333 98.0831 14.04C98.0831 14.76 97.9098 15.5066 97.5631 16.28C97.2431 17.0533 96.5498 17.7733 95.4831 18.44C94.4431 19.1066 92.9231 19.6666 90.9231 20.12C88.9498 20.5733 86.3231 20.84 83.0431 20.92C83.0165 21.1333 83.0031 21.3333 83.0031 21.52C83.0031 21.68 83.0031 21.7866 83.0031 21.84C83.0031 22.56 83.0698 23.2533 83.2031 23.92C83.3365 24.5866 83.5898 25.1866 83.9631 25.72C84.3365 26.2266 84.8565 26.64 85.5231 26.96C86.1898 27.2533 87.0698 27.4 88.1631 27.4C88.9098 27.4 89.5765 27.32 90.1631 27.16C90.7765 26.9733 91.3498 26.7066 91.8831 26.36C92.4431 25.9866 92.9765 25.52 93.4831 24.96C94.0165 24.3733 94.5765 23.6666 95.1631 22.84L97.3631 24.2C96.1898 26.12 94.8565 27.5866 93.3631 28.6C91.8965 29.5866 90.0698 30.08 87.8831 30.08ZM90.8031 11.08C88.7231 11.08 87.0298 11.7066 85.7231 12.96C84.4165 14.2133 83.6165 16.0133 83.3231 18.36L83.2831 18.76C85.7898 18.68 87.8031 18.4933 89.3231 18.2C90.8698 17.88 92.0431 17.5066 92.8431 17.08C93.6698 16.6533 94.2165 16.1866 94.4831 15.68C94.7498 15.1733 94.8831 14.6666 94.8831 14.16C94.8831 13.7333 94.8031 13.3333 94.6431 12.96C94.5098 12.5866 94.2831 12.2666 93.9631 12C93.6431 11.7066 93.2165 11.48 92.6831 11.32C92.1765 11.16 91.5498 11.08 90.8031 11.08ZM109.587 30.08C108.307 30.08 107.174 29.8666 106.187 29.44C105.227 29.0133 104.414 28.4266 103.747 27.68C103.107 26.9066 102.614 25.9866 102.267 24.92C101.947 23.8266 101.787 22.64 101.787 21.36C101.787 19.3866 102.067 17.6133 102.627 16.04C103.187 14.44 103.947 13.08 104.907 11.96C105.867 10.84 106.987 9.98664 108.267 9.39998C109.574 8.78664 110.961 8.47998 112.427 8.47998C113.521 8.47998 114.467 8.61331 115.267 8.87998C116.094 9.14664 116.801 9.50664 117.387 9.95997C117.974 10.3866 118.441 10.9066 118.787 11.52C119.161 12.1333 119.441 12.7733 119.627 13.44L116.947 14.48C116.547 13.2 115.947 12.3333 115.147 11.88C114.374 11.4266 113.347 11.2 112.067 11.2C110.307 11.2 108.867 11.7733 107.747 12.92C106.654 14.0666 105.921 15.72 105.547 17.88L105.147 20.28C105.067 20.76 105.014 21.1333 104.987 21.4C104.961 21.6666 104.947 21.9333 104.947 22.2C104.947 23.96 105.401 25.2666 106.307 26.12C107.241 26.9466 108.467 27.36 109.987 27.36C110.441 27.36 110.894 27.3066 111.347 27.2C111.827 27.0933 112.334 26.8666 112.867 26.52C113.427 26.1733 114.027 25.6666 114.667 25C115.307 24.3333 116.041 23.44 116.867 22.32L119.107 23.64C118.467 24.68 117.814 25.6133 117.147 26.44C116.481 27.24 115.761 27.9066 114.987 28.44C114.241 28.9733 113.414 29.3733 112.507 29.64C111.627 29.9333 110.654 30.08 109.587 30.08ZM128.092 -2.47955e-05H131.212L128.892 13.84H129.052C129.825 12.1866 130.745 10.88 131.812 9.91998C132.879 8.95998 134.252 8.47998 135.932 8.47998C137.665 8.47998 139.025 8.99998 140.012 10.04C141.025 11.08 141.532 12.5466 141.532 14.44C141.532 14.84 141.505 15.28 141.452 15.76C141.425 16.2133 141.372 16.6666 141.292 17.12L139.212 29.6H136.092L138.132 17.4C138.212 16.92 138.265 16.4933 138.292 16.12C138.319 15.72 138.332 15.4133 138.332 15.2C138.332 13.9733 138.052 13.0133 137.492 12.32C136.932 11.6 136.065 11.24 134.892 11.24C133.985 11.24 133.172 11.44 132.452 11.84C131.759 12.24 131.119 12.7866 130.532 13.48C130.425 13.6133 130.252 13.8266 130.012 14.12C129.799 14.3866 129.572 14.7333 129.332 15.16C129.092 15.56 128.865 16.0266 128.652 16.56C128.439 17.0666 128.279 17.6133 128.172 18.2L126.252 29.6H123.132L128.092 -2.47955e-05Z" fill="#8198DB"/>
</svg>
