<svg width="38" height="42" viewBox="0 0 38 42" fill="none" xmlns="http://www.w3.org/2000/svg">
<path d="M1.9 0H32.3C32.8039 0 33.2872 0.201136 33.6435 0.55916C33.9998 0.917184 34.2 1.40277 34.2 1.90909V9.54545C34.2 10.0518 33.9998 10.5374 33.6435 10.8954C33.2872 11.2534 32.8039 11.4545 32.3 11.4545H1.9C1.39609 11.4545 0.912816 11.2534 0.556497 10.8954C0.200178 10.5374 0 10.0518 0 9.54545V1.90909C0 1.40277 0.200178 0.917184 0.556497 0.55916C0.912816 0.201136 1.39609 0 1.9 0ZM1.9 15.2727H32.3C32.8039 15.2727 33.2872 15.4739 33.6435 15.8319C33.9998 16.1899 34.2 16.6755 34.2 17.1818V18.4609L29.45 16.3418L17.1 21.84V26.7273H1.9C1.39609 26.7273 0.912816 26.5261 0.556497 26.1681C0.200178 25.8101 0 25.3245 0 24.8182V17.1818C0 16.6755 0.200178 16.1899 0.556497 15.8319C0.912816 15.4739 1.39609 15.2727 1.9 15.2727ZM1.9 30.5455H17.1C17.214 34.8409 19 38.9455 21.774 42H1.9C1.39609 42 0.912816 41.7989 0.556497 41.4408C0.200178 41.0828 0 40.5972 0 40.0909V32.4545C0 31.9482 0.200178 31.4626 0.556497 31.1046C0.912816 30.7466 1.39609 30.5455 1.9 30.5455ZM11.4 7.63636H13.3V3.81818H11.4V7.63636ZM11.4 22.9091H13.3V19.0909H11.4V22.9091ZM11.4 38.1818H13.3V34.3636H11.4V38.1818ZM3.8 3.81818V7.63636H7.6V3.81818H3.8ZM3.8 19.0909V22.9091H7.6V19.0909H3.8ZM3.8 34.3636V38.1818H7.6V34.3636H3.8ZM29.45 21L38 24.8182V30.5455C38 35.8527 34.352 40.7973 29.45 42C24.548 40.7973 20.9 35.8527 20.9 30.5455V24.8182L29.45 21ZM29.45 24.7036L24.7 26.8418V31.92C24.7 34.86 26.733 37.6091 29.45 38.2964V24.7036Z" fill="#F5746C"/>
</svg>
