<svg width="42" height="42" viewBox="0 0 42 42" fill="none" xmlns="http://www.w3.org/2000/svg">
<path d="M34.356 1.344C37.8 1.344 40.656 4.2 40.656 7.644C40.656 11.109 37.8 13.944 34.356 13.944C30.891 13.944 28.056 11.109 28.056 7.644C28.056 7.014 28.161 6.426 28.35 5.88C26.103 4.809 23.625 4.2 21 4.2C16.5444 4.2 12.2712 5.96999 9.12061 9.12061C5.96999 12.2712 4.2 16.5444 4.2 21L4.284 22.764L0.105 23.205L0 21C0 15.4305 2.21249 10.089 6.15076 6.15076C10.089 2.21249 15.4305 0 21 0C24.549 0 27.888 0.882 30.807 2.436C31.836 1.743 33.054 1.344 34.356 1.344ZM34.356 5.544C33.799 5.544 33.2649 5.76525 32.8711 6.15908C32.4772 6.5529 32.256 7.08704 32.256 7.644C32.256 8.20095 32.4772 8.7351 32.8711 9.12892C33.2649 9.52275 33.799 9.744 34.356 9.744C35.532 9.744 36.456 8.799 36.456 7.644C36.456 6.468 35.532 5.544 34.356 5.544ZM7.644 28.056C11.109 28.056 13.944 30.891 13.944 34.356C13.944 34.986 13.839 35.574 13.65 36.12C15.897 37.191 18.375 37.8 21 37.8C25.4556 37.8 29.7288 36.03 32.8794 32.8794C36.03 29.7288 37.8 25.4556 37.8 21L37.716 19.236L41.895 18.795L42 21C42 26.5695 39.7875 31.911 35.8492 35.8492C31.911 39.7875 26.5695 42 21 42C17.451 42 14.112 41.118 11.193 39.564C10.164 40.257 8.946 40.656 7.644 40.656C4.2 40.656 1.344 37.8 1.344 34.356C1.344 30.891 4.2 28.056 7.644 28.056ZM7.644 32.256C6.468 32.256 5.544 33.201 5.544 34.356C5.544 35.532 6.468 36.456 7.644 36.456C8.20095 36.456 8.7351 36.2347 9.12892 35.8409C9.52275 35.4471 9.744 34.913 9.744 34.356C9.744 33.799 9.52275 33.2649 9.12892 32.8711C8.7351 32.4772 8.20095 32.256 7.644 32.256Z" fill="#62F53B"/>
<path d="M26.68 20.32C24.92 18.56 22.07 18.57 20.32 20.33C18.56 22.09 18.56 24.94 20.32 26.69C21.81 28.17 24.11 28.43 25.89 27.32L29 30.39L30.39 29L27.3 25.89C28.43 24.12 28.17 21.8 26.68 20.32ZM25.27 25.27C24.29 26.25 22.71 26.24 21.73 25.27C20.76 24.29 20.76 22.71 21.74 21.73C22.71 20.76 24.29 20.76 25.27 21.73C26.24 22.71 26.24 24.29 25.27 25.27ZM18.9 28.1C18.25 27.44 17.74 26.65 17.42 25.78C14.27 25.25 12 23.76 12 22V25C12 27.21 15.58 29 20 29C19.6 28.74 19.23 28.44 18.9 28.1ZM12 17V20C12 21.68 14.07 23.12 17 23.7C17 23.63 17 23.57 17 23.5C17 22.57 17.2 21.65 17.58 20.81C14.34 20.3 12 18.79 12 17ZM20 11C15.58 11 12 12.79 12 15C12 17 15 18.68 18.85 19H18.9C20.1 17.74 21.76 17 23.5 17C24.41 17 25.31 17.19 26.14 17.56C27.17 17.09 27.87 16.12 28 15C28 12.79 24.42 11 20 11Z" fill="#62F53B"/>
</svg>
