<svg width="42" height="42" viewBox="0 0 42 42" fill="none" xmlns="http://www.w3.org/2000/svg">
<path d="M33.8333 21C32.9051 21 32.0148 20.6313 31.3585 19.9749C30.7021 19.3185 30.3333 18.4283 30.3333 17.5C30.3333 16.5717 30.7021 15.6815 31.3585 15.0251C32.0148 14.3687 32.9051 14 33.8333 14C34.7616 14 35.6518 14.3687 36.3082 15.0251C36.9646 15.6815 37.3333 16.5717 37.3333 17.5C37.3333 18.4283 36.9646 19.3185 36.3082 19.9749C35.6518 20.6313 34.7616 21 33.8333 21ZM26.8333 11.6667C25.9051 11.6667 25.0148 11.2979 24.3585 10.6415C23.7021 9.98516 23.3333 9.09492 23.3333 8.16667C23.3333 7.23841 23.7021 6.34817 24.3585 5.69179C25.0148 5.03541 25.9051 4.66667 26.8333 4.66667C27.7616 4.66667 28.6518 5.03541 29.3082 5.69179C29.9646 6.34817 30.3333 7.23841 30.3333 8.16667C30.3333 9.09492 29.9646 9.98516 29.3082 10.6415C28.6518 11.2979 27.7616 11.6667 26.8333 11.6667ZM15.1667 11.6667C14.2384 11.6667 13.3482 11.2979 12.6918 10.6415C12.0354 9.98516 11.6667 9.09492 11.6667 8.16667C11.6667 7.23841 12.0354 6.34817 12.6918 5.69179C13.3482 5.03541 14.2384 4.66667 15.1667 4.66667C16.0949 4.66667 16.9852 5.03541 17.6415 5.69179C18.2979 6.34817 18.6667 7.23841 18.6667 8.16667C18.6667 9.09492 18.2979 9.98516 17.6415 10.6415C16.9852 11.2979 16.0949 11.6667 15.1667 11.6667ZM8.16667 21C7.23841 21 6.34817 20.6313 5.69179 19.9749C5.03541 19.3185 4.66667 18.4283 4.66667 17.5C4.66667 16.5717 5.03541 15.6815 5.69179 15.0251C6.34817 14.3687 7.23841 14 8.16667 14C9.09492 14 9.98516 14.3687 10.6415 15.0251C11.2979 15.6815 11.6667 16.5717 11.6667 17.5C11.6667 18.4283 11.2979 19.3185 10.6415 19.9749C9.98516 20.6313 9.09492 21 8.16667 21ZM21 0C15.4305 0 10.089 2.21249 6.15076 6.15076C2.21249 10.089 0 15.4305 0 21C0 26.5695 2.21249 31.911 6.15076 35.8492C10.089 39.7875 15.4305 42 21 42C21.9283 42 22.8185 41.6312 23.4749 40.9749C24.1313 40.3185 24.5 39.4283 24.5 38.5C24.5 37.59 24.15 36.7733 23.59 36.1667C23.0533 35.5367 22.7033 34.72 22.7033 33.8333C22.7033 32.9051 23.0721 32.0148 23.7285 31.3585C24.3848 30.7021 25.2751 30.3333 26.2033 30.3333H30.3333C33.4275 30.3333 36.395 29.1042 38.5829 26.9162C40.7708 24.7283 42 21.7609 42 18.6667C42 8.35333 32.5967 0 21 0Z" fill="#B35FF5"/>
</svg>
