<svg width="38" height="42" viewBox="0 0 38 42" fill="none" xmlns="http://www.w3.org/2000/svg">
<path d="M28.5 15.2727H11.4V11.4545H28.5V15.2727ZM9.5 11.4545H5.7V15.2727H9.5V11.4545ZM9.5 5.72727H5.7V9.54545H9.5V5.72727ZM15.2 5.72727H11.4V9.54545H15.2V5.72727ZM20.9 30.5455V34.3636H22.8C23.845 34.3636 24.7 35.2227 24.7 36.2727H38V40.0909H24.7C24.7 41.1409 23.845 42 22.8 42H15.2C14.155 42 13.3 41.1409 13.3 40.0909H0V36.2727H13.3C13.3 35.2227 14.155 34.3636 15.2 34.3636H17.1V30.5455H3.8C1.691 30.5455 0 28.8464 0 26.7273V3.81818C0 1.69909 1.71 0 3.8 0H34.2C36.309 0 38 1.69909 38 3.81818V26.7273C38 28.8464 36.309 30.5455 34.2 30.5455H20.9ZM34.2 26.7273V3.81818H3.8V26.7273H34.2ZM17.1 9.54545H32.3V5.72727H17.1V9.54545ZM5.7 21H17.1V17.1818H5.7V21ZM20.9 24.8182H32.3V21H20.9V24.8182Z" fill="#9F9EF7"/>
</svg>
