<svg width="42" height="42" viewBox="0 0 42 42" fill="none" xmlns="http://www.w3.org/2000/svg">
<path d="M28.0002 0V4.66699H32.6663C33.9038 4.66699 35.0909 5.15828 35.9661 6.0332C36.8412 6.9083 37.3332 8.09544 37.3333 9.33301V14H42.0002V18.667H37.3333V23.333H42.0002V28H37.3333V32.667C37.3332 33.9045 36.8412 35.0917 35.9661 35.9668C35.0909 36.8417 33.9037 37.333 32.6663 37.333H28.0002V42H23.3333V37.333H18.6663V42H14.0002V37.333H9.33325C8.09567 37.333 6.90857 36.8419 6.03345 35.9668C5.15836 35.0917 4.66635 33.9045 4.66626 32.667V28H0.000244141V23.333H4.66626V18.667H0.000244141V14H4.66626V9.33301C4.66634 8.09544 5.15835 6.9083 6.03345 6.0332C6.90858 5.15812 8.09567 4.66703 9.33325 4.66699H14.0002L18.6663 0V4.66699H23.3333V0H28.0002ZM23.5735 11.9492C21.5726 10.5428 18.8185 10.7174 17.0198 12.3525C15.0075 12.2217 13.1747 13.4543 12.5227 15.2969C11.5447 15.842 10.758 16.7035 10.342 17.7393C10.0611 18.5678 10.0942 19.4617 10.4202 20.2793C10.0717 20.9989 9.93668 21.7951 10.0266 22.5801C10.0829 24.2918 11.1515 25.8179 12.759 26.5156C13.5795 26.8426 14.4561 27.0177 15.344 27.0068C15.9622 27.0177 16.5695 26.941 17.1653 26.7666C17.9972 27.3335 18.9866 27.6279 19.9758 27.6279C20.5379 27.6279 21.1003 27.5405 21.6624 27.377C22.4605 27.9984 23.405 28.4126 24.4055 28.5762L26.7883 31.3027C27.1593 31.7496 27.6995 32 28.2727 32C28.4748 32 28.6882 31.9676 28.8792 31.9023L29.7678 31.6289C30.3072 31.4544 30.7457 31.0514 30.9592 30.5391C31.184 30.0266 31.1504 29.4486 30.8918 28.958L30.0256 27.334C31.4532 26.3419 32.2516 24.7172 32.1506 23.0273C32.1506 22.624 32.1053 22.2313 32.0266 21.8389C32.7124 20.8249 33.0496 19.636 32.9934 18.4258C32.9035 16.1144 31.2623 14.1296 28.969 13.5518C28.0134 12.3854 26.5631 11.731 25.0344 11.7637C24.54 11.7637 24.0455 11.8293 23.5735 11.9492ZM28.7786 29.6338L28.4075 29.7539L27.2834 28.3916L28.0813 28.2168L28.7786 29.6338ZM17.8284 14.7188C18.9525 13.3995 20.0657 13.04 21.0999 13.3125C20.6166 13.8576 20.3353 14.5443 20.3352 15.2637C20.3352 15.9506 19.4584 16.0817 19.2786 16.1035C18.6605 16.1582 18.1995 16.6923 18.2893 17.3027C18.323 17.9024 18.8517 18.3386 19.4924 18.2842C20.1332 18.2188 20.7517 18.0118 21.2913 17.6738C21.7409 18.0444 22.303 18.2624 22.8987 18.2842C23.517 18.2842 24.0227 17.793 24.0227 17.1934C24.0226 16.9043 23.9043 16.6272 23.6936 16.4229C23.4828 16.2184 23.1968 16.1035 22.8987 16.1035C22.8537 16.0707 22.5841 15.537 22.6174 15.2861C22.6174 14.2831 26.1584 12.4948 27.5637 15.7217C30.0931 15.9506 30.7228 17.1285 30.7903 18.4805C30.7903 18.8075 30.7566 19.135 30.7004 19.4512C29.6663 18.5681 28.3399 18.066 26.9573 18.0332C26.6592 18.0332 26.3732 18.1482 26.1624 18.3525C25.9515 18.557 25.8333 18.8349 25.8333 19.124C25.8334 19.413 25.9516 19.6902 26.1624 19.8945C26.3732 20.0989 26.6592 20.2139 26.9573 20.2139C28.5647 20.1486 29.9132 21.3697 29.9807 22.9287C29.9807 22.9832 30.6555 26.3962 24.8889 26.4727C24.5966 26.3963 24.3037 26.3413 24.0227 26.2432C24.8546 25.589 25.4843 24.7274 25.844 23.7461H26.552C26.8502 23.7461 27.1361 23.6312 27.3469 23.4268C27.5577 23.2223 27.676 22.9454 27.676 22.6562C27.676 22.0348 27.1703 21.5656 26.5295 21.4893C25.1582 21.4893 23.9102 21.6205 23.6516 23.125C22.9771 24.4878 21.6057 25.3709 20.0657 25.4473C18.7167 25.3055 17.57 24.4548 17.1204 23.2119C16.9067 22.6234 16.2438 22.3077 15.637 22.5146C15.0299 22.7218 14.7036 23.3653 14.9172 23.9541C15.0409 24.2592 15.1872 24.5536 15.3557 24.8369C14.6924 24.8478 14.0287 24.6948 13.4329 24.4004C12.7249 23.9642 12.3088 23.212 12.3088 22.4053C12.3088 21.9256 12.3095 21.3149 12.6692 21.0205C13.5121 20.7154 14.4337 20.7372 15.2542 21.0859C15.8387 21.2931 16.4908 21.0093 16.7043 20.4424C16.9177 19.8537 16.6032 19.2432 16.0413 19.0361C14.8834 18.6218 13.6352 18.5238 12.4211 18.7637C12.6685 17.6734 13.2311 17.3132 14.2991 16.8008C14.9173 14.6753 15.7603 14.4027 17.8284 14.7188ZM22.5276 19.124C21.7295 19.0805 20.9534 19.3421 20.3577 19.8545C19.7172 20.4868 19.3806 21.3592 19.4143 22.2422C19.4144 22.5312 19.5327 22.8083 19.7434 23.0127C19.9542 23.2171 20.2402 23.332 20.5383 23.332C21.1788 23.3319 21.6622 22.8416 21.6624 22.2422C21.6624 21.9478 21.7413 21.653 21.9211 21.4131C22.056 21.3042 22.2248 21.25 22.4045 21.25C23.0225 21.2825 23.5507 20.8355 23.551 20.2471C23.5735 19.6692 23.1234 19.1785 22.5276 19.124Z" fill="#47A0F5"/>
</svg>
